<svg width="149" height="204" viewBox="0 0 149 204" fill="none" xmlns="http://www.w3.org/2000/svg">
<g filter="url(#filter0_d_1_412)">
<rect x="20" y="10" width="109" height="185" fill="#EEECEC"/>
</g>
<rect width="149" height="204" fill="#9E98DC"/>
<path d="M20 178H74" stroke="#1C2A39" stroke-width="2"/>
<path d="M68 172L75 178L68 184" stroke="#1C2A39" stroke-width="2"/>
<path d="M27.524 119.216C26.24 119.216 25.076 118.94 24.032 118.388C23 117.824 22.184 117.05 21.584 116.066C20.996 115.07 20.702 113.948 20.702 112.7C20.702 111.452 20.996 110.336 21.584 109.352C22.184 108.356 23 107.582 24.032 107.03C25.076 106.466 26.246 106.184 27.542 106.184C28.634 106.184 29.618 106.376 30.494 106.76C31.382 107.144 32.126 107.696 32.726 108.416L30.854 110.144C30.002 109.16 28.946 108.668 27.686 108.668C26.906 108.668 26.21 108.842 25.598 109.19C24.986 109.526 24.506 110 24.158 110.612C23.822 111.224 23.654 111.92 23.654 112.7C23.654 113.48 23.822 114.176 24.158 114.788C24.506 115.4 24.986 115.88 25.598 116.228C26.21 116.564 26.906 116.732 27.686 116.732C28.946 116.732 30.002 116.234 30.854 115.238L32.726 116.966C32.126 117.698 31.382 118.256 30.494 118.64C29.606 119.024 28.616 119.216 27.524 119.216ZM46.2512 106.4V119H43.3352V113.834H37.6112V119H34.6952V106.4H37.6112V111.368H43.3352V106.4H46.2512ZM57.5303 116.3H51.6803L50.5643 119H47.5763L53.1923 106.4H56.0723L61.7063 119H58.6463L57.5303 116.3ZM56.6123 114.086L54.6143 109.262L52.6163 114.086H56.6123ZM74.5695 106.4V119H72.1755L65.8935 111.35V119H63.0135V106.4H65.4255L71.6895 114.05V106.4H74.5695ZM86.0646 112.502H88.7286V117.614C88.0446 118.13 87.2526 118.526 86.3526 118.802C85.4526 119.078 84.5466 119.216 83.6346 119.216C82.3266 119.216 81.1506 118.94 80.1066 118.388C79.0626 117.824 78.2406 117.05 77.6406 116.066C77.0526 115.07 76.7586 113.948 76.7586 112.7C76.7586 111.452 77.0526 110.336 77.6406 109.352C78.2406 108.356 79.0686 107.582 80.1246 107.03C81.1806 106.466 82.3686 106.184 83.6886 106.184C84.7926 106.184 85.7946 106.37 86.6946 106.742C87.5946 107.114 88.3506 107.654 88.9626 108.362L87.0906 110.09C86.1906 109.142 85.1046 108.668 83.8326 108.668C83.0286 108.668 82.3146 108.836 81.6906 109.172C81.0666 109.508 80.5806 109.982 80.2326 110.594C79.8846 111.206 79.7106 111.908 79.7106 112.7C79.7106 113.48 79.8846 114.176 80.2326 114.788C80.5806 115.4 81.0606 115.88 81.6726 116.228C82.2966 116.564 83.0046 116.732 83.7966 116.732C84.6366 116.732 85.3926 116.552 86.0646 116.192V112.502ZM101.193 116.66V119H91.4374V106.4H100.959V108.74H94.3354V111.476H100.185V113.744H94.3354V116.66H101.193ZM27.596 141.216C26.288 141.216 25.106 140.934 24.05 140.37C23.006 139.806 22.184 139.032 21.584 138.048C20.996 137.052 20.702 135.936 20.702 134.7C20.702 133.464 20.996 132.354 21.584 131.37C22.184 130.374 23.006 129.594 24.05 129.03C25.106 128.466 26.288 128.184 27.596 128.184C28.904 128.184 30.08 128.466 31.124 129.03C32.168 129.594 32.99 130.374 33.59 131.37C34.19 132.354 34.49 133.464 34.49 134.7C34.49 135.936 34.19 137.052 33.59 138.048C32.99 139.032 32.168 139.806 31.124 140.37C30.08 140.934 28.904 141.216 27.596 141.216ZM27.596 138.732C28.34 138.732 29.012 138.564 29.612 138.228C30.212 137.88 30.68 137.4 31.016 136.788C31.364 136.176 31.538 135.48 31.538 134.7C31.538 133.92 31.364 133.224 31.016 132.612C30.68 132 30.212 131.526 29.612 131.19C29.012 130.842 28.34 130.668 27.596 130.668C26.852 130.668 26.18 130.842 25.58 131.19C24.98 131.526 24.506 132 24.158 132.612C23.822 133.224 23.654 133.92 23.654 134.7C23.654 135.48 23.822 136.176 24.158 136.788C24.506 137.4 24.98 137.88 25.58 138.228C26.18 138.564 26.852 138.732 27.596 138.732ZM36.6815 128.4H39.5975V138.624H45.9155V141H36.6815V128.4ZM47.5448 128.4H53.2688C54.6368 128.4 55.8428 128.664 56.8868 129.192C57.9428 129.708 58.7588 130.44 59.3348 131.388C59.9228 132.336 60.2168 133.44 60.2168 134.7C60.2168 135.96 59.9228 137.064 59.3348 138.012C58.7588 138.96 57.9428 139.698 56.8868 140.226C55.8428 140.742 54.6368 141 53.2688 141H47.5448V128.4ZM53.1248 138.606C54.3848 138.606 55.3868 138.258 56.1308 137.562C56.8868 136.854 57.2648 135.9 57.2648 134.7C57.2648 133.5 56.8868 132.552 56.1308 131.856C55.3868 131.148 54.3848 130.794 53.1248 130.794H50.4608V138.606H53.1248ZM76.7655 134.448C77.4855 134.676 78.0495 135.06 78.4575 135.6C78.8655 136.128 79.0695 136.782 79.0695 137.562C79.0695 138.666 78.6375 139.518 77.7735 140.118C76.9215 140.706 75.6735 141 74.0295 141H67.5135V128.4H73.6695C75.2055 128.4 76.3815 128.694 77.1975 129.282C78.0255 129.87 78.4395 130.668 78.4395 131.676C78.4395 132.288 78.2895 132.834 77.9895 133.314C77.7015 133.794 77.2935 134.172 76.7655 134.448ZM70.4115 130.596V133.566H73.3095C74.0295 133.566 74.5755 133.44 74.9475 133.188C75.3195 132.936 75.5055 132.564 75.5055 132.072C75.5055 131.58 75.3195 131.214 74.9475 130.974C74.5755 130.722 74.0295 130.596 73.3095 130.596H70.4115ZM73.8135 138.804C74.5815 138.804 75.1575 138.678 75.5415 138.426C75.9375 138.174 76.1355 137.784 76.1355 137.256C76.1355 136.212 75.3615 135.69 73.8135 135.69H70.4115V138.804H73.8135ZM87.3792 141.216C86.0712 141.216 84.8892 140.934 83.8332 140.37C82.7892 139.806 81.9672 139.032 81.3672 138.048C80.7792 137.052 80.4852 135.936 80.4852 134.7C80.4852 133.464 80.7792 132.354 81.3672 131.37C81.9672 130.374 82.7892 129.594 83.8332 129.03C84.8892 128.466 86.0712 128.184 87.3792 128.184C88.6872 128.184 89.8632 128.466 90.9072 129.03C91.9512 129.594 92.7732 130.374 93.3732 131.37C93.9732 132.354 94.2732 133.464 94.2732 134.7C94.2732 135.936 93.9732 137.052 93.3732 138.048C92.7732 139.032 91.9512 139.806 90.9072 140.37C89.8632 140.934 88.6872 141.216 87.3792 141.216ZM87.3792 138.732C88.1232 138.732 88.7952 138.564 89.3952 138.228C89.9952 137.88 90.4632 137.4 90.7992 136.788C91.1472 136.176 91.3212 135.48 91.3212 134.7C91.3212 133.92 91.1472 133.224 90.7992 132.612C90.4632 132 89.9952 131.526 89.3952 131.19C88.7952 130.842 88.1232 130.668 87.3792 130.668C86.6352 130.668 85.9632 130.842 85.3632 131.19C84.7632 131.526 84.2892 132 83.9412 132.612C83.6052 133.224 83.4372 133.92 83.4372 134.7C83.4372 135.48 83.6052 136.176 83.9412 136.788C84.2892 137.4 84.7632 137.88 85.3632 138.228C85.9632 138.564 86.6352 138.732 87.3792 138.732ZM102.567 141.216C101.259 141.216 100.077 140.934 99.0207 140.37C97.9767 139.806 97.1547 139.032 96.5547 138.048C95.9667 137.052 95.6727 135.936 95.6727 134.7C95.6727 133.464 95.9667 132.354 96.5547 131.37C97.1547 130.374 97.9767 129.594 99.0207 129.03C100.077 128.466 101.259 128.184 102.567 128.184C103.875 128.184 105.051 128.466 106.095 129.03C107.139 129.594 107.961 130.374 108.561 131.37C109.161 132.354 109.461 133.464 109.461 134.7C109.461 135.936 109.161 137.052 108.561 138.048C107.961 139.032 107.139 139.806 106.095 140.37C105.051 140.934 103.875 141.216 102.567 141.216ZM102.567 138.732C103.311 138.732 103.983 138.564 104.583 138.228C105.183 137.88 105.651 137.4 105.987 136.788C106.335 136.176 106.509 135.48 106.509 134.7C106.509 133.92 106.335 133.224 105.987 132.612C105.651 132 105.183 131.526 104.583 131.19C103.983 130.842 103.311 130.668 102.567 130.668C101.823 130.668 101.151 130.842 100.551 131.19C99.9507 131.526 99.4767 132 99.1287 132.612C98.7927 133.224 98.6247 133.92 98.6247 134.7C98.6247 135.48 98.7927 136.176 99.1287 136.788C99.4767 137.4 99.9507 137.88 100.551 138.228C101.151 138.564 101.823 138.732 102.567 138.732ZM116.242 136.05L114.55 137.814V141H111.652V128.4H114.55V134.286L120.13 128.4H123.37L118.15 134.016L123.676 141H120.274L116.242 136.05ZM27.596 163.216C26.288 163.216 25.106 162.934 24.05 162.37C23.006 161.806 22.184 161.032 21.584 160.048C20.996 159.052 20.702 157.936 20.702 156.7C20.702 155.464 20.996 154.354 21.584 153.37C22.184 152.374 23.006 151.594 24.05 151.03C25.106 150.466 26.288 150.184 27.596 150.184C28.904 150.184 30.08 150.466 31.124 151.03C32.168 151.594 32.99 152.374 33.59 153.37C34.19 154.354 34.49 155.464 34.49 156.7C34.49 157.936 34.19 159.052 33.59 160.048C32.99 161.032 32.168 161.806 31.124 162.37C30.08 162.934 28.904 163.216 27.596 163.216ZM27.596 160.732C28.34 160.732 29.012 160.564 29.612 160.228C30.212 159.88 30.68 159.4 31.016 158.788C31.364 158.176 31.538 157.48 31.538 156.7C31.538 155.92 31.364 155.224 31.016 154.612C30.68 154 30.212 153.526 29.612 153.19C29.012 152.842 28.34 152.668 27.596 152.668C26.852 152.668 26.18 152.842 25.58 153.19C24.98 153.526 24.506 154 24.158 154.612C23.822 155.224 23.654 155.92 23.654 156.7C23.654 157.48 23.822 158.176 24.158 158.788C24.506 159.4 24.98 159.88 25.58 160.228C26.18 160.564 26.852 160.732 27.596 160.732ZM48.2375 150.4V163H45.8435L39.5615 155.35V163H36.6815V150.4H39.0935L45.3575 158.05V150.4H48.2375ZM67.8723 150.4V163H65.4783L59.1963 155.35V163H56.3163V150.4H58.7283L64.9923 158.05V150.4H67.8723ZM80.6094 160.66V163H70.8534V150.4H80.3754V152.74H73.7514V155.476H79.6014V157.744H73.7514V160.66H80.6094ZM101.798 150.4L97.6758 163H94.5438L91.7718 154.468L88.9098 163H85.7958L81.6558 150.4H84.6798L87.5238 159.256L90.4938 150.4H93.1938L96.0738 159.328L99.0078 150.4H101.798Z" fill="#1C2A39"/>
<defs>
<filter id="filter0_d_1_412" x="-16" y="-2" width="181" height="257" filterUnits="userSpaceOnUse" color-interpolation-filters="sRGB">
<feFlood flood-opacity="0" result="BackgroundImageFix"/>
<feColorMatrix in="SourceAlpha" type="matrix" values="0 0 0 0 0 0 0 0 0 0 0 0 0 0 0 0 0 0 127 0" result="hardAlpha"/>
<feOffset dy="24"/>
<feGaussianBlur stdDeviation="18"/>
<feColorMatrix type="matrix" values="0 0 0 0 0.207843 0 0 0 0 0.192157 0 0 0 0 0.329412 0 0 0 0.28 0"/>
<feBlend mode="normal" in2="BackgroundImageFix" result="effect1_dropShadow_1_412"/>
<feBlend mode="normal" in="SourceGraphic" in2="effect1_dropShadow_1_412" result="shape"/>
</filter>
</defs>
</svg>
