<svg width="137" height="273" viewBox="0 0 137 273" fill="none" xmlns="http://www.w3.org/2000/svg">
<g filter="url(#filter0_d_1_405)">
</g>
<rect width="137" height="273" fill="#FF8FE6"/>
<path d="M21 247H75" stroke="#1C2A39" stroke-width="2"/>
<path d="M69 241L76 247L69 253" stroke="#1C2A39" stroke-width="2"/>
<path d="M25.104 166V155.776H21.072V153.4H32.052V155.776H28.02V166H25.104ZM39.5652 166.216C38.5692 166.216 37.6452 166.054 36.7932 165.73C35.9532 165.406 35.2212 164.95 34.5972 164.362C33.9852 163.774 33.5052 163.084 33.1572 162.292C32.8212 161.5 32.6532 160.636 32.6532 159.7C32.6532 158.764 32.8212 157.9 33.1572 157.108C33.5052 156.316 33.9912 155.626 34.6152 155.038C35.2392 154.45 35.9712 153.994 36.8112 153.67C37.6512 153.346 38.5632 153.184 39.5472 153.184C40.5432 153.184 41.4552 153.346 42.2832 153.67C43.1232 153.994 43.8492 154.45 44.4612 155.038C45.0852 155.626 45.5712 156.316 45.9192 157.108C46.2672 157.888 46.4412 158.752 46.4412 159.7C46.4412 160.636 46.2672 161.506 45.9192 162.31C45.5712 163.102 45.0852 163.792 44.4612 164.38C43.8492 164.956 43.1232 165.406 42.2832 165.73C41.4552 166.054 40.5492 166.216 39.5652 166.216ZM39.5472 163.732C40.1112 163.732 40.6272 163.636 41.0952 163.444C41.5752 163.252 41.9952 162.976 42.3552 162.616C42.7152 162.256 42.9912 161.83 43.1832 161.338C43.3872 160.846 43.4892 160.3 43.4892 159.7C43.4892 159.1 43.3872 158.554 43.1832 158.062C42.9912 157.57 42.7152 157.144 42.3552 156.784C42.0072 156.424 41.5932 156.148 41.1132 155.956C40.6332 155.764 40.1112 155.668 39.5472 155.668C38.9832 155.668 38.4612 155.764 37.9812 155.956C37.5132 156.148 37.0992 156.424 36.7392 156.784C36.3792 157.144 36.0972 157.57 35.8932 158.062C35.7012 158.554 35.6052 159.1 35.6052 159.7C35.6052 160.288 35.7012 160.834 35.8932 161.338C36.0972 161.83 36.3732 162.256 36.7212 162.616C37.0812 162.976 37.5012 163.252 37.9812 163.444C38.4612 163.636 38.9832 163.732 39.5472 163.732ZM48.6327 166V153.4H54.0867C55.2147 153.4 56.1867 153.586 57.0027 153.958C57.8187 154.318 58.4487 154.84 58.8927 155.524C59.3367 156.208 59.5587 157.024 59.5587 157.972C59.5587 158.908 59.3367 159.718 58.8927 160.402C58.4487 161.086 57.8187 161.614 57.0027 161.986C56.1867 162.346 55.2147 162.526 54.0867 162.526H50.2527L51.5487 161.212V166H48.6327ZM51.5487 161.536L50.2527 160.15H53.9247C54.8247 160.15 55.4967 159.958 55.9407 159.574C56.3847 159.19 56.6067 158.656 56.6067 157.972C56.6067 157.276 56.3847 156.736 55.9407 156.352C55.4967 155.968 54.8247 155.776 53.9247 155.776H50.2527L51.5487 154.39V161.536ZM23.646 188V176.48L24.906 177.74H21.126V175.4H26.562V188H23.646ZM34.1508 188.216C33.1188 188.216 32.1948 187.964 31.3788 187.46C30.5628 186.944 29.9208 186.2 29.4528 185.228C28.9848 184.256 28.7508 183.08 28.7508 181.7C28.7508 180.32 28.9848 179.144 29.4528 178.172C29.9208 177.2 30.5628 176.462 31.3788 175.958C32.1948 175.442 33.1188 175.184 34.1508 175.184C35.1948 175.184 36.1188 175.442 36.9228 175.958C37.7388 176.462 38.3808 177.2 38.8488 178.172C39.3168 179.144 39.5508 180.32 39.5508 181.7C39.5508 183.08 39.3168 184.256 38.8488 185.228C38.3808 186.2 37.7388 186.944 36.9228 187.46C36.1188 187.964 35.1948 188.216 34.1508 188.216ZM34.1508 185.75C34.6428 185.75 35.0688 185.612 35.4288 185.336C35.8008 185.06 36.0888 184.622 36.2928 184.022C36.5088 183.422 36.6168 182.648 36.6168 181.7C36.6168 180.752 36.5088 179.978 36.2928 179.378C36.0888 178.778 35.8008 178.34 35.4288 178.064C35.0688 177.788 34.6428 177.65 34.1508 177.65C33.6708 177.65 33.2448 177.788 32.8728 178.064C32.5128 178.34 32.2248 178.778 32.0088 179.378C31.8048 179.978 31.7028 180.752 31.7028 181.7C31.7028 182.648 31.8048 183.422 32.0088 184.022C32.2248 184.622 32.5128 185.06 32.8728 185.336C33.2448 185.612 33.6708 185.75 34.1508 185.75ZM46.3676 188.216C45.3356 188.216 44.4116 187.964 43.5956 187.46C42.7796 186.944 42.1376 186.2 41.6696 185.228C41.2016 184.256 40.9676 183.08 40.9676 181.7C40.9676 180.32 41.2016 179.144 41.6696 178.172C42.1376 177.2 42.7796 176.462 43.5956 175.958C44.4116 175.442 45.3356 175.184 46.3676 175.184C47.4116 175.184 48.3356 175.442 49.1396 175.958C49.9556 176.462 50.5976 177.2 51.0656 178.172C51.5336 179.144 51.7676 180.32 51.7676 181.7C51.7676 183.08 51.5336 184.256 51.0656 185.228C50.5976 186.2 49.9556 186.944 49.1396 187.46C48.3356 187.964 47.4116 188.216 46.3676 188.216ZM46.3676 185.75C46.8596 185.75 47.2856 185.612 47.6456 185.336C48.0176 185.06 48.3056 184.622 48.5096 184.022C48.7256 183.422 48.8336 182.648 48.8336 181.7C48.8336 180.752 48.7256 179.978 48.5096 179.378C48.3056 178.778 48.0176 178.34 47.6456 178.064C47.2856 177.788 46.8596 177.65 46.3676 177.65C45.8876 177.65 45.4616 177.788 45.0896 178.064C44.7296 178.34 44.4416 178.778 44.2256 179.378C44.0216 179.978 43.9196 180.752 43.9196 181.7C43.9196 182.648 44.0216 183.422 44.2256 184.022C44.4416 184.622 44.7296 185.06 45.0896 185.336C45.4616 185.612 45.8876 185.75 46.3676 185.75ZM22.494 210V197.4H28.65C30.234 197.4 31.422 197.7 32.214 198.3C33.018 198.9 33.42 199.692 33.42 200.676C33.42 201.336 33.258 201.912 32.934 202.404C32.61 202.884 32.166 203.256 31.602 203.52C31.038 203.784 30.39 203.916 29.658 203.916L30 203.178C30.792 203.178 31.494 203.31 32.106 203.574C32.718 203.826 33.192 204.204 33.528 204.708C33.876 205.212 34.05 205.83 34.05 206.562C34.05 207.642 33.624 208.488 32.772 209.1C31.92 209.7 30.666 210 29.01 210H22.494ZM25.392 207.804H28.794C29.55 207.804 30.12 207.684 30.504 207.444C30.9 207.192 31.098 206.796 31.098 206.256C31.098 205.728 30.9 205.338 30.504 205.086C30.12 204.822 29.55 204.69 28.794 204.69H25.176V202.566H28.29C28.998 202.566 29.538 202.446 29.91 202.206C30.294 201.954 30.486 201.576 30.486 201.072C30.486 200.58 30.294 200.214 29.91 199.974C29.538 199.722 28.998 199.596 28.29 199.596H25.392V207.804ZM42.3777 210.216C41.3817 210.216 40.4577 210.054 39.6057 209.73C38.7657 209.406 38.0337 208.95 37.4097 208.362C36.7977 207.774 36.3177 207.084 35.9697 206.292C35.6337 205.5 35.4657 204.636 35.4657 203.7C35.4657 202.764 35.6337 201.9 35.9697 201.108C36.3177 200.316 36.8037 199.626 37.4277 199.038C38.0517 198.45 38.7837 197.994 39.6237 197.67C40.4637 197.346 41.3757 197.184 42.3597 197.184C43.3557 197.184 44.2677 197.346 45.0957 197.67C45.9357 197.994 46.6617 198.45 47.2737 199.038C47.8977 199.626 48.3837 200.316 48.7317 201.108C49.0797 201.888 49.2537 202.752 49.2537 203.7C49.2537 204.636 49.0797 205.506 48.7317 206.31C48.3837 207.102 47.8977 207.792 47.2737 208.38C46.6617 208.956 45.9357 209.406 45.0957 209.73C44.2677 210.054 43.3617 210.216 42.3777 210.216ZM42.3597 207.732C42.9237 207.732 43.4397 207.636 43.9077 207.444C44.3877 207.252 44.8077 206.976 45.1677 206.616C45.5277 206.256 45.8037 205.83 45.9957 205.338C46.1997 204.846 46.3017 204.3 46.3017 203.7C46.3017 203.1 46.1997 202.554 45.9957 202.062C45.8037 201.57 45.5277 201.144 45.1677 200.784C44.8197 200.424 44.4057 200.148 43.9257 199.956C43.4457 199.764 42.9237 199.668 42.3597 199.668C41.7957 199.668 41.2737 199.764 40.7937 199.956C40.3257 200.148 39.9117 200.424 39.5517 200.784C39.1917 201.144 38.9097 201.57 38.7057 202.062C38.5137 202.554 38.4177 203.1 38.4177 203.7C38.4177 204.288 38.5137 204.834 38.7057 205.338C38.9097 205.83 39.1857 206.256 39.5337 206.616C39.8937 206.976 40.3137 207.252 40.7937 207.444C41.2737 207.636 41.7957 207.732 42.3597 207.732ZM57.5652 210.216C56.5692 210.216 55.6452 210.054 54.7932 209.73C53.9532 209.406 53.2212 208.95 52.5972 208.362C51.9852 207.774 51.5052 207.084 51.1572 206.292C50.8212 205.5 50.6532 204.636 50.6532 203.7C50.6532 202.764 50.8212 201.9 51.1572 201.108C51.5052 200.316 51.9912 199.626 52.6152 199.038C53.2392 198.45 53.9712 197.994 54.8112 197.67C55.6512 197.346 56.5632 197.184 57.5472 197.184C58.5432 197.184 59.4552 197.346 60.2832 197.67C61.1232 197.994 61.8492 198.45 62.4612 199.038C63.0852 199.626 63.5712 200.316 63.9192 201.108C64.2672 201.888 64.4412 202.752 64.4412 203.7C64.4412 204.636 64.2672 205.506 63.9192 206.31C63.5712 207.102 63.0852 207.792 62.4612 208.38C61.8492 208.956 61.1232 209.406 60.2832 209.73C59.4552 210.054 58.5492 210.216 57.5652 210.216ZM57.5472 207.732C58.1112 207.732 58.6272 207.636 59.0952 207.444C59.5752 207.252 59.9952 206.976 60.3552 206.616C60.7152 206.256 60.9912 205.83 61.1832 205.338C61.3872 204.846 61.4892 204.3 61.4892 203.7C61.4892 203.1 61.3872 202.554 61.1832 202.062C60.9912 201.57 60.7152 201.144 60.3552 200.784C60.0072 200.424 59.5932 200.148 59.1132 199.956C58.6332 199.764 58.1112 199.668 57.5472 199.668C56.9832 199.668 56.4612 199.764 55.9812 199.956C55.5132 200.148 55.0992 200.424 54.7392 200.784C54.3792 201.144 54.0972 201.57 53.8932 202.062C53.7012 202.554 53.6052 203.1 53.6052 203.7C53.6052 204.288 53.7012 204.834 53.8932 205.338C54.0972 205.83 54.3732 206.256 54.7212 206.616C55.0812 206.976 55.5012 207.252 55.9812 207.444C56.4612 207.636 56.9832 207.732 57.5472 207.732ZM69.2427 207.12L69.0807 203.754L75.1107 197.4H78.3507L72.9147 203.25L71.2947 204.978L69.2427 207.12ZM66.6327 210V197.4H69.5307V210H66.6327ZM75.2547 210L70.7727 204.51L72.6807 202.44L78.6567 210H75.2547ZM83.8332 210.216C82.8252 210.216 81.8592 210.084 80.9352 209.82C80.0112 209.544 79.2672 209.19 78.7032 208.758L79.6932 206.562C80.2332 206.946 80.8692 207.264 81.6012 207.516C82.3452 207.756 83.0952 207.876 83.8512 207.876C84.4272 207.876 84.8892 207.822 85.2372 207.714C85.5972 207.594 85.8612 207.432 86.0292 207.228C86.1972 207.024 86.2812 206.79 86.2812 206.526C86.2812 206.19 86.1492 205.926 85.8852 205.734C85.6212 205.53 85.2732 205.368 84.8412 205.248C84.4092 205.116 83.9292 204.996 83.4012 204.888C82.8852 204.768 82.3632 204.624 81.8352 204.456C81.3192 204.288 80.8452 204.072 80.4132 203.808C79.9812 203.544 79.6272 203.196 79.3512 202.764C79.0872 202.332 78.9552 201.78 78.9552 201.108C78.9552 200.388 79.1472 199.734 79.5312 199.146C79.9272 198.546 80.5152 198.072 81.2952 197.724C82.0872 197.364 83.0772 197.184 84.2652 197.184C85.0572 197.184 85.8372 197.28 86.6052 197.472C87.3732 197.652 88.0512 197.928 88.6392 198.3L87.7392 200.514C87.1512 200.178 86.5632 199.932 85.9752 199.776C85.3872 199.608 84.8112 199.524 84.2472 199.524C83.6832 199.524 83.2212 199.59 82.8612 199.722C82.5012 199.854 82.2432 200.028 82.0872 200.244C81.9312 200.448 81.8532 200.688 81.8532 200.964C81.8532 201.288 81.9852 201.552 82.2492 201.756C82.5132 201.948 82.8612 202.104 83.2932 202.224C83.7252 202.344 84.1992 202.464 84.7152 202.584C85.2432 202.704 85.7652 202.842 86.2812 202.998C86.8092 203.154 87.2892 203.364 87.7212 203.628C88.1532 203.892 88.5012 204.24 88.7652 204.672C89.0412 205.104 89.1792 205.65 89.1792 206.31C89.1792 207.018 88.9812 207.666 88.5852 208.254C88.1892 208.842 87.5952 209.316 86.8032 209.676C86.0232 210.036 85.0332 210.216 83.8332 210.216ZM21.594 232V230.11L26.454 225.52C26.838 225.172 27.12 224.86 27.3 224.584C27.48 224.308 27.6 224.056 27.66 223.828C27.732 223.6 27.768 223.39 27.768 223.198C27.768 222.694 27.594 222.31 27.246 222.046C26.91 221.77 26.412 221.632 25.752 221.632C25.224 221.632 24.732 221.734 24.276 221.938C23.832 222.142 23.454 222.46 23.142 222.892L21.018 221.524C21.498 220.804 22.17 220.234 23.034 219.814C23.898 219.394 24.894 219.184 26.022 219.184C26.958 219.184 27.774 219.34 28.47 219.652C29.178 219.952 29.724 220.378 30.108 220.93C30.504 221.482 30.702 222.142 30.702 222.91C30.702 223.318 30.648 223.726 30.54 224.134C30.444 224.53 30.24 224.95 29.928 225.394C29.628 225.838 29.184 226.336 28.596 226.888L24.564 230.686L24.006 229.624H31.116V232H21.594ZM37.7192 232.216C36.6872 232.216 35.7632 231.964 34.9472 231.46C34.1312 230.944 33.4892 230.2 33.0212 229.228C32.5532 228.256 32.3192 227.08 32.3192 225.7C32.3192 224.32 32.5532 223.144 33.0212 222.172C33.4892 221.2 34.1312 220.462 34.9472 219.958C35.7632 219.442 36.6872 219.184 37.7192 219.184C38.7632 219.184 39.6872 219.442 40.4912 219.958C41.3072 220.462 41.9492 221.2 42.4172 222.172C42.8852 223.144 43.1192 224.32 43.1192 225.7C43.1192 227.08 42.8852 228.256 42.4172 229.228C41.9492 230.2 41.3072 230.944 40.4912 231.46C39.6872 231.964 38.7632 232.216 37.7192 232.216ZM37.7192 229.75C38.2112 229.75 38.6372 229.612 38.9972 229.336C39.3692 229.06 39.6572 228.622 39.8612 228.022C40.0772 227.422 40.1852 226.648 40.1852 225.7C40.1852 224.752 40.0772 223.978 39.8612 223.378C39.6572 222.778 39.3692 222.34 38.9972 222.064C38.6372 221.788 38.2112 221.65 37.7192 221.65C37.2392 221.65 36.8132 221.788 36.4412 222.064C36.0812 222.34 35.7932 222.778 35.5772 223.378C35.3732 223.978 35.2712 224.752 35.2712 225.7C35.2712 226.648 35.3732 227.422 35.5772 228.022C35.7932 228.622 36.0812 229.06 36.4412 229.336C36.8132 229.612 37.2392 229.75 37.7192 229.75ZM44.3577 232V230.11L49.2177 225.52C49.6017 225.172 49.8837 224.86 50.0637 224.584C50.2437 224.308 50.3637 224.056 50.4237 223.828C50.4957 223.6 50.5317 223.39 50.5317 223.198C50.5317 222.694 50.3577 222.31 50.0097 222.046C49.6737 221.77 49.1757 221.632 48.5157 221.632C47.9877 221.632 47.4957 221.734 47.0397 221.938C46.5957 222.142 46.2177 222.46 45.9057 222.892L43.7817 221.524C44.2617 220.804 44.9337 220.234 45.7977 219.814C46.6617 219.394 47.6577 219.184 48.7857 219.184C49.7217 219.184 50.5377 219.34 51.2337 219.652C51.9417 219.952 52.4877 220.378 52.8717 220.93C53.2677 221.482 53.4657 222.142 53.4657 222.91C53.4657 223.318 53.4117 223.726 53.3037 224.134C53.2077 224.53 53.0037 224.95 52.6917 225.394C52.3917 225.838 51.9477 226.336 51.3597 226.888L47.3277 230.686L46.7697 229.624H53.8797V232H44.3577ZM54.9749 232V230.11L59.8349 225.52C60.2189 225.172 60.5009 224.86 60.6809 224.584C60.8609 224.308 60.9809 224.056 61.0409 223.828C61.1129 223.6 61.1489 223.39 61.1489 223.198C61.1489 222.694 60.9749 222.31 60.6269 222.046C60.2909 221.77 59.7929 221.632 59.1329 221.632C58.6049 221.632 58.1129 221.734 57.6569 221.938C57.2129 222.142 56.8349 222.46 56.5229 222.892L54.3989 221.524C54.8789 220.804 55.5509 220.234 56.4149 219.814C57.2789 219.394 58.2749 219.184 59.4029 219.184C60.3389 219.184 61.1549 219.34 61.8509 219.652C62.5589 219.952 63.1049 220.378 63.4889 220.93C63.8849 221.482 64.0829 222.142 64.0829 222.91C64.0829 223.318 64.0289 223.726 63.9209 224.134C63.8249 224.53 63.6209 224.95 63.3089 225.394C63.0089 225.838 62.5649 226.336 61.9769 226.888L57.9449 230.686L57.3869 229.624H64.4969V232H54.9749Z" fill="#1C2A39"/>
<defs>
<filter id="filter0_d_1_405" x="-15" y="-3" width="209" height="327" filterUnits="userSpaceOnUse" color-interpolation-filters="sRGB">
<feFlood flood-opacity="0" result="BackgroundImageFix"/>
<feColorMatrix in="SourceAlpha" type="matrix" values="0 0 0 0 0 0 0 0 0 0 0 0 0 0 0 0 0 0 127 0" result="hardAlpha"/>
<feOffset dy="24"/>
<feGaussianBlur stdDeviation="18"/>
<feColorMatrix type="matrix" values="0 0 0 0 0.207843 0 0 0 0 0.192157 0 0 0 0 0.329412 0 0 0 0.28 0"/>
<feBlend mode="normal" in2="BackgroundImageFix" result="effect1_dropShadow_1_405"/>
<feBlend mode="normal" in="SourceGraphic" in2="effect1_dropShadow_1_405" result="shape"/>
</filter>
</defs>
</svg>
